<?xml version="1.0" standalone="no"?>
<!DOCTYPE svg PUBLIC "-//W3C//DTD SVG 20010904//EN"
 "http://www.w3.org/TR/2001/REC-SVG-20010904/DTD/svg10.dtd">
<svg version="1.0" xmlns="http://www.w3.org/2000/svg"
 width="180.000000pt" height="180.000000pt" viewBox="0 0 180.000000 180.000000"
 preserveAspectRatio="xMidYMid meet">

<g transform="translate(0.000000,180.000000) scale(0.100000,-0.100000)"
fill="#000000" stroke="none">
<path d="M726 1744 c-262 -63 -470 -225 -586 -455 -136 -267 -112 -623 58
-864 50 -72 147 -169 217 -219 286 -204 685 -206 975 -5 239 165 369 415 370
705 0 396 -262 732 -648 830 -111 28 -288 32 -386 8z m97 -71 c15 -31 25 -58
24 -59 -1 -1 -14 -5 -30 -9 -21 -6 -27 -4 -27 9 0 9 -5 16 -10 16 -6 0 -10 -7
-8 -16 2 -12 -10 -20 -44 -29 -46 -11 -48 -11 -48 9 -1 12 -7 39 -15 61 -8 21
-13 40 -12 41 1 1 14 4 30 8 24 6 27 3 27 -17 0 -32 20 -88 30 -82 4 2 10 27
13 55 11 90 32 94 70 13z m275 42 c7 -6 -9 -45 -18 -45 -5 0 -11 8 -13 18 -3
9 -6 -1 -7 -23 -5 -64 -5 -65 -13 -65 -50 0 -49 -1 -42 33 12 57 15 82 9 70
-9 -20 -24 -15 -24 7 0 18 5 20 53 14 28 -4 54 -8 55 -9z m69 -20 c2 -1 -6
-24 -15 -51 -10 -27 -17 -55 -14 -62 4 -14 1 -15 -32 -3 l-25 10 18 48 c10 27
16 54 13 61 -3 9 4 11 25 6 15 -4 29 -8 30 -9z m-243 -11 c24 -9 19 -24 -8
-24 -26 0 -40 12 -29 24 8 8 17 8 37 0z m307 -14 c11 -6 20 -22 20 -38 2 -23
2 -24 6 -4 4 23 27 30 38 12 3 -5 1 -10 -4 -10 -6 0 -21 -23 -33 -50 -12 -28
-27 -49 -32 -47 -6 2 -16 23 -23 48 l-11 44 -7 -32 c-4 -18 -11 -33 -15 -33
-17 0 -16 14 1 50 11 21 19 46 19 55 0 18 13 19 41 5z m-597 -16 c3 -9 4 -19
2 -23 -3 -4 4 -14 15 -21 30 -22 23 -37 -28 -60 -25 -11 -47 -19 -47 -18 -1 2
-13 27 -28 56 l-26 52 26 15 c36 19 78 19 86 -1z m-117 -58 c-6 -16 12 -48 24
-41 5 4 12 -1 16 -11 4 -12 -3 -24 -23 -41 -16 -12 -33 -23 -39 -22 -5 0 -24
22 -41 49 -31 47 -30 70 2 70 6 0 17 7 24 15 10 12 16 13 27 4 7 -7 12 -17 10
-23z m872 -38 c-12 -23 -33 -24 -25 0 4 9 -5 4 -18 -13 -14 -16 -25 -38 -26
-48 0 -16 -2 -16 -30 -2 l-31 16 31 37 c33 40 38 54 15 46 -18 -7 -20 7 -4 23
8 8 23 4 54 -15 36 -22 42 -29 34 -44z m-299 8 c150 -41 320 -170 400 -306 57
-95 56 -107 -7 -130 -28 -10 -57 -21 -62 -25 -7 -4 -11 -71 -11 -188 l0 -183
65 -32 c36 -17 65 -37 65 -43 0 -40 -92 -179 -167 -251 -125 -122 -337 -199
-507 -185 -101 8 -178 31 -276 79 -164 82 -297 250 -347 438 -23 87 -23 244 0
330 73 273 297 474 572 514 54 8 219 -3 275 -18z m358 -32 c44 -30 15 -114
-40 -114 -29 0 -58 28 -58 56 0 13 13 33 31 48 36 30 38 31 67 10z m-1004 -16
c24 -33 19 -61 -14 -93 -16 -16 -30 -24 -30 -19 0 6 -18 29 -40 51 l-40 42 27
20 c34 28 78 27 97 -1z m-60 -140 c-4 -6 -24 -7 -47 -4 -35 6 -39 5 -27 -9 7
-8 19 -15 26 -15 19 0 18 -4 -13 -51 -15 -23 -29 -35 -33 -29 -5 7 -11 6 -19
-4 -10 -11 -9 -15 3 -18 11 -2 13 -7 7 -17 -8 -12 -15 -8 -38 19 -15 18 -34
41 -40 51 -15 20 -6 52 12 45 45 -17 96 -28 102 -22 8 8 -46 55 -64 56 -7 0
-13 6 -13 14 0 22 28 39 55 34 13 -3 22 -1 19 3 -3 5 -12 9 -20 9 -16 0 -18
12 -4 26 13 13 103 -73 94 -88z m1154 67 c31 -36 29 -86 -4 -72 -6 2 -33 -56
-28 -62 4 -4 77 40 86 52 3 6 16 -9 28 -33 12 -23 18 -46 13 -50 -16 -14 -71
-20 -76 -7 -3 9 -8 9 -18 -1 -11 -11 -10 -14 9 -19 19 -4 20 -8 10 -21 -11
-13 -9 -14 12 -7 14 4 38 14 53 22 33 17 36 15 53 -34 14 -41 3 -68 -26 -60
-8 2 -23 -7 -33 -20 -17 -22 -17 -23 1 -23 10 0 33 5 51 11 36 13 36 13 45
-18 6 -19 2 -22 -49 -33 -30 -6 -55 -15 -55 -19 0 -4 27 -13 61 -20 52 -10 60
-15 57 -33 -3 -20 -16 -27 -95 -52 -20 -6 -23 -4 -23 18 0 16 6 26 15 26 8 0
12 6 9 14 -3 8 -11 13 -18 10 -14 -5 -26 35 -26 82 0 13 -4 24 -10 24 -5 0
-10 7 -10 16 0 26 -59 136 -106 197 -46 59 -53 77 -31 77 7 0 26 14 42 30 16
17 32 30 35 30 4 0 16 -11 28 -25z m-1288 -257 c32 -10 -5 -28 -60 -28 -64 0
-77 9 -60 40 8 16 17 19 37 14 18 -5 24 -4 19 5 -4 6 -14 11 -22 11 -13 0 -20
21 -9 32 3 3 23 -12 44 -32 21 -21 44 -39 51 -42z m-20 -89 c0 -26 -3 -29 -20
-24 -14 5 -20 2 -20 -9 0 -9 5 -15 12 -13 8 1 10 -15 9 -53 -2 -30 -5 -58 -7
-62 -2 -3 -21 -2 -41 4 -20 5 -47 8 -59 5 -21 -4 -24 0 -24 24 0 15 5 31 10
34 6 3 10 1 10 -4 0 -6 20 -11 47 -11 45 0 46 0 28 20 -17 19 -17 20 1 20 12
0 1 11 -28 27 -44 24 -59 49 -41 66 3 4 33 7 65 7 l58 0 0 -31z m274 -771 c9
-12 16 -19 16 -15 0 4 11 0 25 -9 15 -10 26 -27 26 -43 2 -23 2 -24 6 -3 2 12
5 22 7 22 11 0 113 -55 118 -64 14 -20 8 -45 -16 -72 -22 -27 -25 -27 -65 -16
-22 7 -41 14 -41 17 0 2 9 24 20 50 23 54 23 55 10 55 -5 0 -21 -20 -36 -45
-14 -25 -31 -44 -38 -42 -6 2 -13 23 -16 48 -5 44 -5 44 -19 19 -8 -14 -14
-26 -13 -27 3 -5 -8 -5 -21 0 -8 4 -9 8 -2 14 6 4 21 23 34 41 17 24 20 37 13
44 -12 12 -46 -21 -57 -54 -8 -24 -28 -23 -50 2 -10 11 -13 20 -7 20 6 0 23
18 39 40 32 45 46 49 67 18z m852 14 c-6 -10 49 -84 57 -76 3 3 3 13 0 21 -4
11 -2 14 8 11 25 -8 20 -33 -12 -57 -29 -22 -33 -22 -41 -7 -5 10 -23 32 -39
50 l-29 34 23 15 c24 17 41 22 33 9z m-39 -89 c24 -25 42 -47 41 -48 -19 -15
-48 -23 -53 -15 -9 14 -25 2 -19 -14 3 -7 -1 -16 -9 -19 -11 -4 -16 5 -20 31
-3 20 -8 48 -11 61 -5 22 8 51 22 51 3 0 25 -21 49 -47z m-102 -43 c11 -27 24
-50 30 -50 15 -1 -26 -30 -42 -30 -7 0 -13 5 -13 10 0 6 -9 30 -20 53 -19 39
-20 43 -3 54 25 19 27 17 48 -37z m-77 3 c5 -10 7 -24 5 -30 -3 -7 3 -20 11
-29 21 -20 20 -40 -1 -48 -11 -5 -23 0 -32 11 -13 17 -13 17 -8 1 4 -10 3 -18
-1 -18 -4 0 -17 -3 -29 -6 -19 -5 -22 -1 -28 40 -4 26 -12 49 -18 53 -5 3 -7
1 -3 -5 3 -6 2 -13 -3 -17 -5 -3 -14 3 -20 12 -11 18 -9 -6 5 -74 4 -20 0 -23
-26 -23 -30 0 -30 1 -30 52 0 48 -1 50 -15 32 -14 -18 -14 -18 -15 8 0 25 4
27 48 33 26 3 63 9 82 14 55 13 69 12 78 -6z m-375 1 c13 -5 13 -11 1 -52 -15
-47 -9 -67 14 -53 8 4 14 29 15 55 2 41 13 57 29 41 7 -7 -24 -101 -38 -115
-12 -12 -57 1 -68 19 -4 6 -4 33 0 61 6 49 14 57 47 44z m157 -41 l0 -27 -21
23 c-12 12 -24 19 -27 16 -4 -4 5 -16 21 -27 51 -37 23 -97 -38 -82 -19 5 -25
13 -25 33 l0 26 20 -25 c10 -14 22 -21 27 -17 4 5 -4 18 -20 29 -47 34 -30 78
30 78 29 0 33 -3 33 -27z"/>
<path d="M580 1645 c0 -5 5 -17 10 -25 5 -8 10 -10 10 -5 0 6 -5 17 -10 25 -5
8 -10 11 -10 5z"/>
<path d="M606 1577 c3 -10 9 -15 12 -12 3 3 0 11 -7 18 -10 9 -11 8 -5 -6z"/>
<path d="M480 1586 c0 -8 5 -18 10 -21 6 -3 10 3 10 14 0 12 -4 21 -10 21 -5
0 -10 -6 -10 -14z"/>
<path d="M512 1530 c14 -22 24 -19 15 5 -4 8 -11 15 -17 15 -6 0 -6 -7 2 -20z"/>
<path d="M590 1299 c0 -101 0 -102 36 -151 l37 -49 -8 -140 c-4 -76 -3 -139 2
-139 24 1 31 23 38 125 3 61 9 118 12 128 4 16 20 17 201 15 l197 -3 8 -120
c6 -93 12 -123 25 -133 9 -6 19 -9 23 -5 3 5 2 68 -3 141 l-9 134 36 43 35 43
0 107 0 106 -82 -3 -83 -3 -3 -37 c-3 -35 -6 -38 -33 -38 -27 0 -29 2 -29 40
l0 40 -85 0 -85 0 0 -40 c0 -38 -2 -40 -30 -40 -28 0 -30 2 -30 40 l0 40 -85
0 -85 0 0 -101z m130 26 l5 -40 65 0 65 0 5 40 c5 39 6 40 45 40 39 0 40 -1
45 -40 l5 -40 60 -3 c67 -4 85 9 85 61 0 27 2 28 38 25 l37 -3 3 -72 3 -72
-73 -3 c-57 -2 -73 -6 -73 -18 0 -11 14 -16 58 -18 31 -2 57 -7 57 -11 0 -4
-9 -16 -21 -27 -19 -17 -36 -19 -227 -16 -199 3 -208 4 -226 25 l-18 22 168 5
c141 4 169 7 169 20 0 13 -28 15 -182 18 l-183 2 0 69 c0 37 3 71 7 75 4 4 23
6 43 4 33 -3 35 -6 40 -43z"/>
<path d="M373 832 c-6 -10 -25 -25 -42 -33 l-30 -15 28 -82 c38 -107 81 -178
155 -251 73 -71 154 -122 245 -152 88 -29 259 -31 341 -4 173 57 300 163 375
313 29 59 28 63 -26 90 -30 15 -34 22 -37 62 l-3 45 -39 -3 c-31 -3 -44 1 -64
21 -22 22 -26 23 -38 10 -37 -45 -98 -45 -145 -1 -21 20 -21 20 -32 0 -6 -11
-25 -25 -42 -31 -34 -12 -57 -4 -95 30 -20 19 -21 19 -40 -2 -10 -12 -29 -25
-41 -30 -29 -11 -80 7 -94 33 -10 18 -12 18 -45 -12 -42 -37 -73 -38 -113 -4
l-31 26 -31 -26 c-44 -37 -90 -32 -129 16 -15 18 -15 18 -27 0z m975 -130 c2
-12 -1 -22 -6 -22 -6 0 -5 -18 1 -45 10 -45 10 -46 -29 -86 l-39 -40 -11 98
c-6 54 -10 99 -10 99 1 1 11 5 23 8 18 6 22 2 28 -25 6 -28 9 -30 17 -14 7 12
7 20 -2 25 -15 9 -3 33 13 27 7 -2 13 -13 15 -25z m-810 4 c1 -2 -2 -15 -8
-30 -12 -33 -13 -126 -1 -126 5 0 12 8 17 18 6 14 8 12 13 -13 5 -25 9 -16 27
55 17 71 24 86 42 88 17 3 22 -3 26 -30 8 -45 12 -228 6 -228 -25 2 -54 32
-55 56 0 15 -6 29 -13 32 -9 3 -11 -3 -6 -22 3 -14 3 -26 -1 -26 -3 0 -30 22
-58 49 l-52 49 3 72 4 72 26 -7 c15 -4 28 -8 30 -9z m693 -33 c8 -19 8 -37 1
-55 -7 -18 -7 -30 0 -34 32 -20 30 -104 -3 -104 -22 0 -27 18 -39 122 l-9 73
4 -85 c3 -47 7 -95 11 -107 5 -17 0 -25 -24 -37 l-29 -15 -7 107 c-3 59 -9
119 -12 135 -6 27 -6 27 45 27 47 0 52 -2 62 -27z m-408 8 c25 -1 27 -4 28
-43 1 -27 3 -34 6 -19 8 40 34 72 56 69 39 -6 61 -62 61 -157 1 -101 -18 -151
-58 -151 -37 0 -59 43 -64 127 -3 40 -9 73 -13 73 -5 0 -9 15 -9 33 -1 28 -2
29 -11 13 -7 -11 -10 -60 -7 -127 2 -60 1 -109 -3 -109 -3 0 -20 5 -38 11 -32
11 -39 23 -21 34 6 4 9 49 9 108 -1 56 -4 90 -6 75 -7 -44 -23 -33 -23 15 0
52 4 57 38 52 15 -1 39 -3 55 -4z m262 -8 c14 -13 16 -29 12 -75 -3 -32 -1
-61 4 -64 5 -3 9 -18 9 -34 0 -15 6 -30 12 -32 10 -4 10 -10 0 -32 -20 -44
-45 -30 -59 34 l-13 55 4 -62 c3 -43 0 -63 -7 -63 -7 0 -22 -3 -34 -6 -21 -6
-22 -4 -17 47 3 30 1 95 -4 144 -5 50 -7 93 -5 98 8 14 81 7 98 -10z"/>
<path d="M1310 611 c0 -11 5 -23 10 -26 6 -3 10 3 10 14 0 11 -4 23 -10 26 -5
3 -10 -3 -10 -14z"/>
<path d="M597 586 c-4 -15 -6 -31 -2 -34 10 -10 16 6 13 35 l-3 28 -8 -29z"/>
<path d="M907 649 c-12 -23 -4 -235 8 -229 11 6 13 70 5 175 -3 42 -9 64 -13
54z"/>
<path d="M1043 605 c0 -33 2 -45 4 -27 2 18 2 45 0 60 -2 15 -4 0 -4 -33z"/>
<path d="M1406 1486 c-14 -19 -26 -38 -26 -42 0 -10 29 16 51 48 29 40 7 35
-25 -6z"/>
<path d="M397 1487 c15 -19 30 -33 32 -31 5 5 -43 63 -52 63 -5 1 4 -14 20
-32z"/>
<path d="M1470 1375 c-11 -13 -10 -14 4 -9 9 3 16 10 16 15 0 13 -6 11 -20 -6z"/>
<path d="M1585 1300 c-3 -5 1 -10 9 -10 9 0 16 5 16 10 0 6 -4 10 -9 10 -6 0
-13 -4 -16 -10z"/>
<path d="M1640 1200 c-9 -6 -10 -10 -3 -10 6 0 15 5 18 10 8 12 4 12 -15 0z"/>
<path d="M1590 1180 c-9 -6 -10 -10 -3 -10 6 0 15 5 18 10 8 12 4 12 -15 0z"/>
<path d="M1650 1009 c0 -5 5 -7 10 -4 6 3 10 8 10 11 0 2 -4 4 -10 4 -5 0 -10
-5 -10 -11z"/>
<path d="M155 1070 c3 -5 8 -10 11 -10 2 0 4 5 4 10 0 6 -5 10 -11 10 -5 0 -7
-4 -4 -10z"/>
<path d="M648 185 c-9 -25 -15 -45 -13 -45 7 0 36 73 33 82 -2 5 -11 -11 -20
-37z"/>
<path d="M1091 184 c0 -11 3 -14 6 -6 3 7 2 16 -1 19 -3 4 -6 -2 -5 -13z"/>
</g>
</svg>
